<svg xmlns="http://www.w3.org/2000/svg" viewBox="0 0 64 64" width="64" height="64">
  <defs>
    <linearGradient id="g" x1="0" y1="0" x2="1" y2="1">
      <stop offset="0" stop-color="#2aabee" />
      <stop offset="1" stop-color="#229ed9" />
    </linearGradient>
  </defs>
  <rect width="64" height="64" rx="14" fill="url(#g)" />
  <path
    fill="#fff"
    d="M46.6 18.4 15.9 30.3c-1.6.6-1.6 1.6-.3 2l7.9 2.5 3 9.1c.4 1 0 1.4 1.1 1.4.8 0 1.2-.4 1.7-.8l4.1-4 8.4 6.2c1.5.8 2.6.4 3-.9l5.4-25.3c.5-1.7-.6-2.5-1.6-2.1Zm-6.7 5.2-14 12.6-.5 5.4-2.2-6.6 16.7-11.4Z"
  />
</svg>
